<svg version="1.1" id="Layer_1" xmlns="http://www.w3.org/2000/svg" xmlns:xlink="http://www.w3.org/1999/xlink" x="0px" y="0px"
	 width="100%" viewBox="0 0 1024 1024" enable-background="new 0 0 1024 1024" xml:space="preserve">
<path fill="#000000" opacity="1.000000" stroke="none" 
	d="
M568.660706,746.687073 
	C568.659058,742.561462 568.435303,738.878784 568.700562,735.231750 
	C569.309998,726.854309 568.026001,719.424866 560.655884,713.973145 
	C556.946411,711.229248 557.002625,706.637878 556.913879,702.497864 
	C556.710388,693.002014 556.639465,683.499634 556.751526,674.002686 
	C556.791565,670.605042 556.095642,667.764954 553.433411,665.554016 
	C553.179016,665.342773 553.006042,665.028442 552.741943,664.834595 
	C538.967346,654.723572 534.380188,641.256592 536.436951,624.427246 
	C537.641113,614.574829 536.562256,604.453674 536.713989,594.456543 
	C536.763428,591.202087 535.721069,588.724976 533.503662,586.423645 
	C529.359070,582.122314 525.389038,577.652893 521.543762,573.468140 
	C518.648315,575.180115 519.398682,576.854858 519.396790,578.182739 
	C519.346680,612.847229 519.380554,647.511902 519.312500,682.176331 
	C519.306824,685.059753 520.113220,687.214294 522.257690,689.202820 
	C525.429443,692.143921 528.078064,695.669373 531.354492,698.472534 
	C535.996887,702.444458 537.188782,707.474426 537.188538,713.191101 
	C537.187744,728.356812 537.396484,743.523438 537.263428,758.687500 
	C537.227173,762.807617 538.062561,765.691223 541.717834,768.303589 
	C547.491821,772.430054 549.011780,779.908691 546.480713,786.793152 
	C544.198914,792.999695 539.234802,796.334595 532.207642,796.381897 
	C524.367249,796.434692 519.106506,793.108459 516.532837,786.471191 
	C513.941956,779.789490 515.890869,772.099365 521.932678,767.716858 
	C524.907410,765.558960 525.749084,763.202026 525.712463,759.749939 
	C525.563965,745.752319 525.077637,731.720032 525.859924,717.764648 
	C526.350037,709.021790 521.270508,704.924194 515.552307,700.216858 
	C509.017761,706.242432 503.136261,711.676392 504.137329,721.770813 
	C505.152649,732.009033 504.550720,742.407715 504.653442,752.736145 
	C504.691895,756.602966 503.253448,759.265259 498.960846,759.338989 
	C494.794464,759.410645 492.780212,756.933105 492.747101,753.097534 
	C492.624878,738.932800 492.703552,724.766479 492.676178,710.600708 
	C492.669739,707.262390 494.576508,704.748474 496.818298,702.905396 
	C506.682037,694.795715 508.159119,684.332153 507.873657,672.207458 
	C507.171783,642.392212 507.651123,612.549438 507.624207,582.717712 
	C507.622314,580.604980 508.025818,578.396484 506.884766,576.397949 
	C499.135864,579.125366 492.332123,588.420105 492.323944,596.154846 
	C492.311279,608.154175 492.141632,620.156799 492.375153,632.151489 
	C492.486786,637.887451 491.008667,642.726440 486.544128,646.348816 
	C479.946625,651.701782 477.780487,658.302002 478.091248,666.890869 
	C478.747559,685.032654 477.913025,703.225769 478.441162,721.375916 
	C478.693298,730.041626 476.508087,737.102966 470.018829,742.715210 
	C466.301117,745.930298 464.804688,749.768311 465.316895,754.642700 
	C465.611267,757.444519 465.498718,760.311584 465.327972,763.134644 
	C465.049194,767.743896 465.765045,771.610474 469.263947,775.322327 
	C474.119171,780.472961 473.192169,788.242188 468.126709,792.796082 
	C463.293823,797.141052 455.821686,796.911194 450.894012,792.266052 
	C445.940094,787.596252 445.046051,779.583435 450.044830,774.787720 
	C453.733185,771.249146 454.120605,767.522095 453.998322,763.142883 
	C453.928589,760.645508 454.111908,758.140198 454.018463,755.644531 
	C453.676880,746.522034 455.191772,738.150574 462.911407,732.050415 
	C465.653290,729.883667 466.003082,726.816528 465.994537,723.496155 
	C465.941254,702.831055 466.174316,682.163879 465.951355,661.501221 
	C465.867828,653.759827 467.119385,647.039246 473.785522,642.116882 
	C478.531982,638.611938 480.363403,633.817932 479.914520,627.765198 
	C479.459900,621.634644 479.889221,615.440552 479.870728,609.274414 
	C479.865845,607.647339 480.201202,605.672058 478.447479,604.770386 
	C476.504303,603.771301 475.414917,605.599670 474.294983,606.712524 
	C465.783569,615.170410 457.347443,623.704163 448.813599,632.139099 
	C447.024384,633.907532 446.232666,635.813965 446.253876,638.334900 
	C446.346436,649.333557 446.399261,660.334656 446.247681,671.331848 
	C446.208740,674.155579 447.537598,675.871582 449.214752,677.830078 
	C452.436737,681.592529 452.993988,685.894226 450.491516,690.325989 
	C448.102173,694.557312 443.515167,696.453308 438.497498,695.388184 
	C433.678802,694.365356 431.010712,691.222961 430.238800,686.517761 
	C429.665771,683.025146 430.825500,679.857361 433.312195,677.411377 
	C435.150421,675.603210 435.724579,673.627502 435.680817,671.150940 
	C435.568970,664.819824 435.646332,658.485535 435.611359,652.152710 
	C435.603149,650.662720 435.681183,649.021240 433.835358,648.424988 
	C432.335815,647.940613 431.273865,648.872742 430.328430,649.826843 
	C426.810791,653.376770 423.330170,656.963440 419.830200,660.530945 
	C418.303497,662.087036 418.045197,664.042053 418.056580,666.083252 
	C418.143951,681.748535 418.359436,697.414856 418.234283,713.078430 
	C418.202942,716.997925 421.070099,718.007446 423.275391,719.832153 
	C429.865845,725.285217 431.279755,733.735107 426.747498,740.865723 
	C422.429749,747.658875 413.224976,750.399963 406.076996,747.021362 
	C395.449554,741.997925 393.717285,727.206360 403.156799,719.539368 
	C405.982880,717.244019 406.897766,714.990417 406.848816,711.556946 
	C406.656494,698.059937 406.730896,684.559265 406.634033,671.060486 
	C406.620453,669.165466 407.402374,666.592407 405.031616,665.748779 
	C402.552551,664.866638 399.545166,664.525818 397.387085,666.433594 
	C391.150024,671.947205 385.159607,677.738831 379.002594,683.344666 
	C377.260406,684.930847 378.085114,686.646118 378.255829,688.421753 
	C379.427643,700.609558 372.987885,708.331482 361.662292,708.378845 
	C351.046570,708.423157 344.908661,701.415894 345.674164,690.126221 
	C346.296356,680.950195 354.891602,673.973999 364.290588,675.961365 
	C368.854126,676.926270 371.473389,675.561584 374.264435,672.540833 
	C377.767120,668.749878 381.887512,665.491272 385.125397,661.502930 
	C390.045319,655.442749 396.264923,652.743103 403.824554,652.933533 
	C407.846985,653.034851 410.684784,651.345032 413.400177,648.575562 
	C419.440216,642.415161 426.319122,637.088684 432.556732,629.618591 
	C424.852631,628.397156 417.968964,626.449219 411.411346,630.733521 
	C407.776978,633.107971 403.946106,634.279663 399.671600,634.288208 
	C390.005585,634.307617 380.338745,634.422852 370.673981,634.325806 
	C367.574341,634.294678 365.506470,635.110596 363.683807,637.914795 
	C359.328949,644.614868 351.924683,646.949890 344.459198,644.556763 
	C336.692383,642.067017 332.685974,636.655334 332.657318,628.615295 
	C332.629059,620.690186 336.821930,614.527100 343.913452,612.069885 
	C351.337402,609.497498 358.973785,611.878235 363.663879,618.605896 
	C365.395569,621.089905 367.333679,622.086182 370.290344,622.030945 
	C377.787048,621.890808 385.290039,621.857178 392.786316,622.000732 
	C398.226959,622.104858 403.418335,621.775940 407.827820,618.008301 
	C409.726501,616.385986 412.189545,616.612793 414.530579,616.612549 
	C423.196503,616.611694 431.862976,616.525330 440.528076,616.604309 
	C444.602600,616.641479 447.966980,615.345215 450.849731,612.444824 
	C455.782745,607.481689 460.857605,602.659790 465.807495,597.713074 
	C467.155762,596.365662 469.396820,595.102600 468.316345,592.783752 
	C467.384918,590.784729 465.101959,591.421875 463.336792,591.418518 
	C443.337952,591.380371 423.338989,591.404419 403.340118,591.373352 
	C389.616150,591.352051 382.660309,584.439148 382.656708,570.849670 
	C382.648315,539.184692 382.649506,507.519775 382.664978,475.854828 
	C382.671143,463.236450 389.755310,456.049805 402.523285,456.020264 
	C434.188019,455.946991 465.853027,456.006927 497.517944,455.985260 
	C499.818604,455.983673 502.166748,456.331146 504.404358,455.516876 
	C505.193115,453.667145 504.175110,452.130402 503.525940,450.719543 
	C497.967682,438.638855 490.768982,427.766693 480.458618,419.093933 
	C476.221832,415.530029 471.530731,414.179413 466.167084,414.387207 
	C449.569641,415.030273 433.655762,412.328888 418.938202,404.284180 
	C398.490692,393.107422 387.216064,374.959900 380.802612,353.295166 
	C378.210297,344.538239 376.084839,335.652649 374.827911,326.571838 
	C374.279327,322.608490 375.143646,319.850739 379.600647,319.787689 
	C398.881592,319.514984 418.135529,318.585876 436.819397,325.518463 
	C465.789551,336.267700 483.498444,360.669983 483.224884,391.550140 
	C483.143188,400.772491 485.912628,408.044250 492.955902,413.940460 
	C498.162079,418.298798 502.417786,423.637390 507.650513,429.928619 
	C507.650513,425.462799 507.650726,422.340820 507.650513,419.218842 
	C507.649597,405.719574 507.296265,392.207733 507.777557,378.725677 
	C508.073822,370.426788 505.225769,363.784882 499.914459,357.877869 
	C495.459167,352.922913 490.456512,348.402252 486.432281,343.127686 
	C469.587280,321.048828 466.436920,297.141205 478.558228,271.927948 
	C485.724030,257.022522 496.394135,244.668701 509.045624,234.044434 
	C510.995697,232.406815 512.887817,230.761383 515.583496,233.007416 
	C532.852661,247.396011 548.379944,263.281036 553.648438,285.992859 
	C559.073303,309.378357 552.828125,330.085999 536.445435,347.675232 
	C535.310486,348.893768 534.117249,350.062012 532.901611,351.200745 
	C523.701904,359.818481 518.619385,369.659271 519.768494,383.025940 
	C520.906189,396.259094 519.982239,409.668518 519.995544,423.000610 
	C519.997314,424.805267 519.694031,426.661346 520.882263,429.191742 
	C522.905884,426.709930 524.690552,424.487213 526.516113,422.298645 
	C527.262207,421.404205 527.983276,420.427612 528.908752,419.753571 
	C540.492432,411.317261 543.876404,399.754700 544.897461,385.728027 
	C547.195984,354.151215 566.137268,332.704224 596.548157,323.768066 
	C613.312744,318.841736 630.345581,318.735046 647.495239,319.859497 
	C653.346619,320.243134 653.536072,321.048737 652.678406,327.279358 
	C650.112305,345.920502 645.358521,363.845001 634.903503,379.749481 
	C620.196289,402.122437 599.239197,413.504700 572.520691,414.361420 
	C571.022095,414.409485 569.492798,414.577881 568.025635,414.363312 
	C554.024292,412.315948 544.558777,419.342865 536.691467,429.781189 
	C530.781433,437.622620 525.538025,445.808350 522.088928,455.129303 
	C524.697327,456.438965 527.057617,455.970703 529.330994,455.972595 
	C561.162537,455.998993 592.994019,455.970673 624.825562,455.978333 
	C637.183044,455.981323 643.231750,461.338593 644.661499,473.553711 
	C644.912415,475.697052 644.965332,477.873260 644.968811,480.034485 
	C645.016052,509.365997 645.058105,538.697571 645.036621,568.029114 
	C645.034424,571.011536 644.910217,574.052856 644.330627,576.965027 
	C642.480469,586.262817 636.235962,591.328186 626.714111,591.352112 
	C605.548706,591.405151 584.383179,591.376282 563.217651,591.380554 
	C561.252380,591.380981 559.287048,591.380554 557.502136,591.380554 
	C556.659973,593.343750 557.898010,593.990540 558.648682,594.740540 
	C565.014648,601.101074 571.495728,607.348633 577.771057,613.796692 
	C579.952148,616.037842 582.340759,616.607666 585.337036,616.727966 
	C596.187866,617.163696 606.952820,615.620789 617.785461,615.597534 
	C623.925171,615.584412 629.789795,615.569946 634.364807,620.549438 
	C635.411438,621.688538 637.010864,621.898376 638.548157,621.898438 
	C646.047363,621.898987 653.547424,621.821533 661.045227,621.923035 
	C663.644714,621.958191 664.810364,620.432068 666.104492,618.567200 
	C671.688110,610.521118 682.147705,608.547485 689.829773,613.974854 
	C696.913940,618.979797 698.825928,630.825012 693.754944,638.291809 
	C688.741638,645.673401 677.859070,647.705566 670.219543,642.592834 
	C668.863220,641.685242 667.237671,640.575562 666.684631,639.182678 
	C664.820007,634.486389 661.244812,634.128845 656.965454,634.321777 
	C651.476868,634.569214 645.963196,634.228333 640.470642,634.426025 
	C635.106567,634.619080 630.192932,633.770203 626.085388,630.009766 
	C625.486938,629.461914 624.692444,628.810913 623.960449,628.774353 
	C614.390015,628.296936 604.811279,627.832642 594.743896,629.209167 
	C596.330933,633.278503 599.374939,635.172852 601.730103,637.611206 
	C603.812927,639.767639 606.155823,641.687317 608.117981,643.942810 
	C612.124634,648.548645 616.535583,651.615967 623.172607,650.842529 
	C626.857849,650.413147 630.197998,652.180420 632.937317,655.023804 
	C639.064331,661.383606 645.410278,667.531860 651.583496,673.847961 
	C653.738708,676.052979 655.793152,676.896240 659.092529,676.076477 
	C666.246033,674.299072 673.065063,677.670349 676.395996,683.917664 
	C679.906494,690.501770 678.661743,699.367798 673.540771,704.255676 
	C668.344971,709.214905 659.340881,710.001465 652.577393,706.086975 
	C646.619629,702.638794 643.684998,695.580505 645.569397,688.467651 
	C646.247559,685.907776 645.922180,684.206787 643.894409,682.364563 
	C637.852478,676.875183 632.018250,671.157288 626.097717,665.534180 
	C625.010376,664.501465 623.944702,663.266785 622.343079,663.237793 
	C614.181824,663.089661 606.913879,660.907471 601.821716,653.535828 
	C601.319092,653.802917 600.816406,654.070068 600.313782,654.337158 
	C600.313782,659.512207 600.707825,664.725098 600.215271,669.852844 
	C599.583679,676.427307 601.459045,681.697449 606.777893,685.513123 
	C617.791931,693.414490 620.823914,704.338989 619.066162,717.134949 
	C618.614929,720.419434 619.431580,722.411377 622.651306,724.263550 
	C630.804626,728.953674 632.949097,740.185120 627.581482,747.293945 
	C621.716980,755.060791 610.671082,756.686035 603.712891,750.805908 
	C596.417358,744.640625 595.153748,732.360168 602.376648,726.444153 
	C608.915588,721.088379 605.721619,714.599670 606.728271,708.579956 
	C607.466858,704.162964 604.809387,701.527466 602.065735,698.723816 
	C585.559387,681.855530 588.135986,687.476562 587.759705,663.966614 
	C587.679749,658.968079 587.334534,653.928284 587.821594,648.977356 
	C588.452942,642.560120 586.142578,638.077026 581.396484,633.791016 
	C571.880676,625.197815 562.925110,615.985413 553.698242,607.069946 
	C552.416626,605.831543 551.348206,604.196289 549.324341,603.956604 
	C547.893066,604.901245 548.370911,606.361694 548.366577,607.613464 
	C548.329956,618.112793 548.406372,628.612793 548.310913,639.111328 
	C548.286438,641.804077 549.101074,643.856628 551.001770,645.778381 
	C555.570862,650.398132 559.922729,655.231934 564.449341,659.894775 
	C567.160706,662.687683 568.386963,665.917480 568.355530,669.802734 
	C568.278809,679.301575 568.572327,688.809692 568.241821,698.297485 
	C568.077209,703.021851 569.169983,706.770447 572.910095,709.697266 
	C577.684631,713.433411 579.581177,718.126526 579.636353,724.401978 
	C579.699036,731.537903 580.271179,738.707947 580.209167,745.867920 
	C580.178833,749.368835 580.940186,752.047424 583.668579,754.656372 
	C588.905029,759.663452 588.001892,768.254700 582.298828,772.658875 
	C576.639465,777.029419 569.030884,775.813904 565.264954,769.937744 
	C562.641174,765.843750 562.786377,758.952209 566.150146,754.902039 
	C568.142883,752.502686 568.902771,750.081848 568.660706,746.687073 
M501.240692,536.945068 
	C506.745728,537.714539 507.641144,534.355469 507.633209,529.976501 
	C507.599091,511.145142 507.545410,492.312988 507.698181,473.482758 
	C507.730316,469.521545 506.296844,468.299652 502.437134,468.312012 
	C469.274048,468.418213 436.110443,468.348633 402.947083,468.397980 
	C396.926361,468.406921 395.268402,470.175354 395.259430,476.187958 
	C395.232605,494.186157 395.240051,512.184387 395.258820,530.182617 
	C395.265839,536.937195 395.296844,536.941406 402.313812,536.941956 
	C434.977264,536.944458 467.640747,536.944275 501.240692,536.945068 
M520.009094,515.499878 
	C520.022827,520.994873 520.143921,526.492371 520.011902,531.983887 
	C519.926147,535.549561 521.230591,537.025818 524.962524,537.014099 
	C558.765015,536.907959 592.567993,536.881226 626.370483,536.973450 
	C631.052307,536.986206 632.794434,535.352356 632.737000,530.546509 
	C632.526001,512.898315 632.671143,495.246033 632.659241,477.595276 
	C632.654358,470.302704 630.788086,468.380768 623.552979,468.376099 
	C590.915710,468.354980 558.278198,468.437286 525.641602,468.291290 
	C521.265198,468.271698 519.778809,469.719086 519.846375,474.037842 
	C520.057251,487.522766 519.975952,501.012268 520.009094,515.499878 
M537.105042,276.375153 
	C531.960571,266.104828 524.670044,257.547974 516.185425,249.901672 
	C514.292725,248.195953 512.805054,247.462860 510.744781,249.572891 
	C494.739777,265.964264 480.644714,283.078613 484.279327,308.427460 
	C486.492157,323.860565 494.614136,335.299561 506.456848,344.821777 
	C508.170044,342.747711 507.612000,340.666351 507.620667,338.744202 
	C507.683380,324.760498 507.672455,310.776459 507.680603,296.792511 
	C507.683350,292.114044 508.461853,287.546875 509.556976,283.014496 
	C510.092346,280.798859 510.769958,278.596893 513.521606,278.701782 
	C516.159912,278.802368 516.902771,280.972473 517.457581,283.172272 
	C518.598755,287.697388 519.341187,292.268066 519.339966,296.948547 
	C519.336243,311.431702 519.321472,325.914948 519.382996,340.397888 
	C519.390381,342.132751 518.787720,344.033600 520.102478,345.639923 
	C540.790466,330.536316 550.790894,301.454803 537.105042,276.375153 
M607.719299,362.199738 
	C592.747437,374.630951 577.774231,387.060760 564.336304,402.074921 
	C577.474304,403.854340 593.938293,400.159363 605.399597,392.800079 
	C626.585266,379.196716 634.436096,357.743103 639.182617,334.553589 
	C639.825195,331.413879 637.511902,331.439484 635.462158,331.424011 
	C624.290955,331.339783 613.080566,331.661224 602.270264,334.559875 
	C579.720337,340.606232 562.759766,352.863495 557.864807,377.319855 
	C556.996521,381.657654 555.228699,386.112305 556.997375,390.757050 
	C559.070129,390.142365 559.957764,388.630798 561.115662,387.477173 
	C573.779419,374.860291 587.574402,363.610626 602.461731,353.746124 
	C605.315247,351.855316 609.367737,348.743652 612.305359,352.344452 
	C615.474487,356.229034 610.816956,358.691956 608.602539,361.361572 
	C608.496948,361.488892 608.363098,361.592773 607.719299,362.199738 
M462.433075,402.297607 
	C462.996704,400.430573 461.408386,399.673065 460.445526,398.711090 
	C448.895966,387.172363 437.042480,375.967499 424.310425,365.716309 
	C421.467987,363.427734 418.875061,360.817139 416.268463,358.251984 
	C414.609924,356.619781 413.698212,354.498932 415.101379,352.395447 
	C416.445099,350.381073 418.570862,350.940735 420.547333,351.621521 
	C423.412140,352.608337 425.983185,354.137207 428.429413,355.874542 
	C441.748047,365.333740 454.632751,375.316803 466.141479,386.979340 
	C467.292877,388.146118 468.255615,390.076569 471.015106,389.292175 
	C469.772064,371.794006 464.423309,356.182068 449.750763,345.531525 
	C432.478119,332.993622 412.286926,331.029541 391.692871,331.334686 
	C388.629211,331.380096 388.004974,333.050629 388.630676,335.621429 
	C389.886658,340.781952 390.803009,346.063110 392.522461,351.066711 
	C404.274750,385.266083 427.644958,403.076172 462.433075,402.297607 
M461.500122,549.392944 
	C441.200134,549.390015 420.899323,549.480835 400.600800,549.306152 
	C396.472595,549.270691 394.945892,550.566284 395.160706,554.717834 
	C395.435486,560.028137 395.208771,565.363525 395.231049,570.688049 
	C395.261902,578.064697 396.835327,579.628296 404.415802,579.639954 
	C423.717407,579.669617 443.110260,578.502686 462.292664,580.017517 
	C478.484100,581.296204 490.634216,576.816406 500.054993,563.824890 
	C502.183807,560.889160 505.068726,558.483032 506.542267,555.058167 
	C508.506195,550.493713 507.850067,549.423401 502.933624,549.407104 
	C489.455933,549.362366 475.977997,549.392883 461.500122,549.392944 
M595.499939,579.659058 
	C605.161316,579.659302 614.822998,579.698853 624.484070,579.645386 
	C630.354431,579.612915 632.539246,577.400085 632.633545,571.454407 
	C632.710144,566.624878 632.668762,561.793274 632.657898,556.962585 
	C632.641785,549.797180 632.261597,549.401611 624.969177,549.398254 
	C592.986633,549.383484 561.003967,549.346313 529.021790,549.456116 
	C526.230286,549.465698 522.285400,547.750366 520.838989,551.010498 
	C519.489380,554.052246 522.354675,556.869812 524.126526,559.455139 
	C524.778931,560.407043 525.593018,561.267517 526.427307,562.072266 
	C531.460815,566.927551 536.613770,571.663330 541.530579,576.633240 
	C543.687500,578.813416 545.950745,579.742615 549.025146,579.718018 
	C564.182556,579.596741 579.341492,579.660461 595.499939,579.659058 
M343.316132,624.948730 
	C341.617798,630.270020 343.085236,633.862488 347.351593,634.627930 
	C350.854736,635.256287 353.665833,633.980896 355.119324,630.764954 
	C356.512756,627.681824 355.481567,624.990601 352.749298,622.968567 
	C349.274139,620.396729 346.319885,621.162720 343.316132,624.948730 
M675.279541,632.015869 
	C679.345520,635.305237 682.567322,635.359680 685.187378,632.183228 
	C687.448547,629.441895 687.004761,625.514832 684.050964,623.369324 
	C681.842468,621.765137 679.314941,621.578369 677.028992,623.037964 
	C673.847473,625.069397 673.639954,628.108337 675.279541,632.015869 
M661.559692,686.415344 
	C656.494019,687.751282 654.495361,690.596375 656.157166,694.237183 
	C657.444397,697.057312 659.803040,698.698914 662.808044,698.133484 
	C665.470642,697.632507 667.565369,695.893982 667.750427,692.743225 
	C667.978149,688.864929 665.842163,687.048340 661.559692,686.415344 
M360.324036,697.959229 
	C363.691467,699.210022 365.790405,697.259644 367.206573,694.752075 
	C368.275970,692.858582 368.232208,690.553955 366.616241,688.718750 
	C364.967072,686.845825 362.886047,685.947876 360.394348,686.671143 
	C358.177032,687.314758 356.604797,688.720276 356.253967,691.115234 
	C355.818695,694.086853 357.052216,696.244080 360.324036,697.959229 
M417.317139,735.786865 
	C419.594666,730.952820 418.356506,727.231079 414.139343,726.452576 
	C411.423798,725.951355 409.137756,726.813477 407.816925,729.313538 
	C406.620819,731.577637 406.872742,733.867188 408.684113,735.752747 
	C411.166718,738.337097 413.926056,738.205017 417.317139,735.786865 
M527.739563,776.449768 
	C525.442688,779.561646 525.339722,782.558655 528.431946,785.181702 
	C530.871521,787.251282 533.403625,786.825623 535.517212,784.698242 
	C537.682617,782.518738 538.632690,779.866882 536.437988,777.171997 
	C534.178772,774.397888 531.429626,773.449097 527.739563,776.449768 
M618.902161,740.387329 
	C620.085449,738.067383 620.080627,735.857178 617.906372,734.159912 
	C616.317322,732.919495 614.520996,732.095947 612.396790,733.097290 
	C610.477661,734.001892 609.028809,735.384705 608.697754,737.461670 
	C608.376709,739.475220 609.691650,740.921204 611.286255,741.912537 
	C613.867126,743.516968 616.313049,743.218445 618.902161,740.387329 
M461.508270,786.160706 
	C463.182190,784.766541 464.215454,783.202942 462.550903,781.153931 
	C461.443756,779.791016 460.059387,778.953247 458.259918,779.845581 
	C456.576172,780.680420 455.915314,782.144226 456.322845,783.931702 
	C456.880829,786.379395 458.684021,786.815979 461.508270,786.160706 
M572.248596,763.433716 
	C572.460144,765.316040 573.405273,766.640930 575.394226,766.248169 
	C577.072632,765.916687 578.341003,764.641235 578.300476,762.803162 
	C578.270081,761.422913 577.228882,760.344299 575.930054,759.972595 
	C573.628845,759.314026 572.715088,760.803406 572.248596,763.433716 
z"/>
<path fill="#000000" opacity="1.000000" stroke="none" 
	d="
M579.478455,514.719482 
	C590.759583,514.686462 601.585388,514.725952 612.410400,514.652649 
	C616.519226,514.624878 619.824463,515.603516 620.211243,520.359497 
	C620.522583,524.188660 617.564819,526.373291 612.247070,526.391418 
	C601.754700,526.427185 591.261719,526.340088 580.769958,526.427551 
	C577.092957,526.458130 574.459534,525.077148 573.864075,521.400330 
	C573.254761,517.637817 575.388428,515.484741 579.478455,514.719482 
z"/>
<path fill="#000000" opacity="1.000000" stroke="none" 
	d="
M589.017639,488.657593 
	C597.488647,488.659027 605.463196,488.722504 613.436096,488.636475 
	C617.375427,488.593994 620.065552,490.132721 620.160034,494.219910 
	C620.254333,498.299377 617.460815,500.221283 613.704041,500.263977 
	C602.575623,500.390472 591.443726,500.380432 580.315308,500.248901 
	C576.577026,500.204681 573.714478,498.372528 573.815002,494.263306 
	C573.914612,490.189606 576.640442,488.575165 580.546875,488.658234 
	C583.203552,488.714752 585.862549,488.661926 589.017639,488.657593 
z"/>
</svg>